<svg width="37" height="37" viewBox="0 0 37 37" fill="none" xmlns="http://www.w3.org/2000/svg">
<circle cx="18.347" cy="18.5708" r="17.6939" fill="#574EBE"/>
<path d="M26.153 12.0654H10.5408C10.3682 12.0654 10.2028 12.134 10.0808 12.256C9.95879 12.378 9.89026 12.5434 9.89026 12.7159V23.7746C9.89026 24.1197 10.0273 24.4506 10.2713 24.6946C10.5153 24.9386 10.8462 25.0756 11.1913 25.0756H25.5025C25.8476 25.0756 26.1785 24.9386 26.4225 24.6946C26.6665 24.4506 26.8035 24.1197 26.8035 23.7746V12.7159C26.8035 12.5434 26.735 12.378 26.613 12.256C26.491 12.134 26.3255 12.0654 26.153 12.0654ZM25.5025 23.7746H11.1913V14.195L17.907 20.3513C18.027 20.4615 18.184 20.5226 18.3469 20.5226C18.5098 20.5226 18.6668 20.4615 18.7868 20.3513L25.5025 14.195V23.7746Z" fill="white"/>
</svg>
