<svg width="25" height="25" viewBox="0 0 25 25" fill="none" xmlns="http://www.w3.org/2000/svg">
<path d="M13.4871 2.5213L22.4871 11.5213C23.1171 12.1513 22.6711 13.2283 21.7801 13.2283H20.7801V19.2283C20.7801 20.024 20.464 20.787 19.9014 21.3496C19.3388 21.9122 18.5757 22.2283 17.7801 22.2283H16.7801V15.2283C16.7801 14.4631 16.4877 13.7268 15.9628 13.17C15.4378 12.6133 14.72 12.2782 13.9561 12.2333L13.7801 12.2283H11.7801C10.9844 12.2283 10.2214 12.5444 9.65875 13.107C9.09614 13.6696 8.78007 14.4327 8.78007 15.2283V22.2283H7.78007C6.98442 22.2283 6.22136 21.9122 5.65875 21.3496C5.09614 20.787 4.78007 20.024 4.78007 19.2283V13.2283H3.78007C2.89007 13.2283 2.44307 12.1513 3.07307 11.5213L12.0731 2.5213C12.2606 2.33383 12.5149 2.22852 12.7801 2.22852C13.0452 2.22852 13.2995 2.33383 13.4871 2.5213ZM13.7801 14.2283C14.0453 14.2283 14.2996 14.3337 14.4872 14.5212C14.6747 14.7087 14.7801 14.9631 14.7801 15.2283V22.2283H10.7801V15.2283C10.7801 14.9834 10.87 14.747 11.0328 14.5639C11.1955 14.3809 11.4198 14.264 11.6631 14.2353L11.7801 14.2283H13.7801Z" fill="#98A2B3"/>
</svg>
